<svg width="384" height="192" viewBox="0 0 384 192" fill="none" xmlns="http://www.w3.org/2000/svg">
<g clip-path="url(#clip0_123_1034)">
<path d="M0 96L96 192L28.8 96L96 0L0 96Z" fill="#1B4D3E"/>
<path fill-rule="evenodd" clip-rule="evenodd" d="M287.992 88.5114L287.991 89.3099C287.938 90.0013 288.61 95.399 284.179 104.155C280.34 111.742 267.195 124.824 251.296 116.926C240.911 111.768 238.216 106.002 217.977 104.618C217.502 104.586 211.297 104.162 212.19 106.036C213.453 108.684 227.398 118.692 236.147 119.733C249.693 121.344 264.797 119.639 270.34 139.667C275.412 157.994 262.301 170.401 253.577 172.165C246.903 173.515 243.898 170.208 243.649 171.595C243.618 171.765 243.065 186.446 229.008 191.077C217.918 194.729 193.76 187.709 194.382 167.051C194.677 157.23 200.25 143.808 195.275 126.025C195.131 125.507 193.281 118.896 191.457 120.577C188.983 122.859 184.809 137.303 186.103 146.805C186.492 149.666 197.876 183.474 168.329 191.066C155.823 194.28 142.659 188.505 140.358 173.452C140.086 171.674 140.487 171.089 139.639 171.24C137.033 171.707 125.899 176.918 115.937 160.863C111.865 154.299 107.372 134.31 124.771 125.204C142.179 116.093 145.173 124.529 161.607 113.719C168.32 109.304 175.3 105.882 169.348 105.213C166.364 104.878 152.073 105.842 146.854 108.575C144.051 110.043 122.708 128.889 104.131 109.997C98.4346 104.204 96.6894 97.2356 96.4104 94.6264C96.1377 92.0785 96.2056 92.1179 96.0018 89.5758L96 88.7779C98.098 77.7257 99.0626 77.8195 107.612 70.9097C109.318 69.5303 96.9844 57.0114 114.815 40.3274C123.481 32.2186 145.62 30.4845 153.161 46.2039C159.761 59.9627 156.454 62.2481 166.446 71.2989C166.778 71.5993 186.923 94.6384 177.955 73.3775C172.636 60.7675 170.564 58.6549 169.576 57.648C162.28 50.2098 146.334 37.1126 153.398 17.9286C156.23 10.2385 165.591 -0.610777 177.026 0.0268688C191.649 0.842098 190.408 8.22335 193.167 7.94513C193.445 7.91691 202.804 -5.44864 220.517 3.89667C234.297 11.1674 239.214 34.0431 227.427 46.418C218.911 55.3581 213.943 53.2963 205.284 74.4438C202.413 81.4555 203.608 82.0431 204.158 81.8583C204.919 81.6022 205.245 82.0205 218.074 70.5127C228.678 61.0005 226.025 46.3479 241.852 37.2446C252.671 31.0223 277.924 38.2556 278.886 57.8948C279.297 66.2779 273.392 71.1437 274.585 71.9678C277.386 73.902 286.467 75.6637 287.604 86.6496C287.705 87.628 287.793 87.5545 287.992 88.5114Z" fill="#2EFF9C"/>
<path d="M384 96L288 192L355.2 96L288 0L384 96Z" fill="#1B4D3E"/>
</g>
<defs>
<clipPath id="clip0_123_1034">
<rect width="384" height="192" fill="white"/>
</clipPath>
</defs>
</svg>
