<svg width="444" height="122" viewBox="0 0 444 122" fill="none" xmlns="http://www.w3.org/2000/svg">
<g clip-path="url(#clip0_123_857)">
<path d="M23 61L61 99L34.4 61L61 23L23 61Z" fill="#1B4D3E"/>
<path fill-rule="evenodd" clip-rule="evenodd" d="M136.997 58.0358L136.997 58.3518C136.975 58.6255 137.241 60.7621 135.488 64.228C133.968 67.2313 128.765 72.4097 122.471 69.2834C118.361 67.2414 117.294 64.959 109.282 64.4115C109.095 64.3986 106.638 64.2307 106.992 64.9727C107.492 66.0206 113.012 69.9822 116.475 70.3942C121.837 71.0319 127.815 70.3572 130.009 78.2847C132.017 85.5393 126.828 90.4504 123.374 91.1488C120.733 91.6831 119.543 90.374 119.444 90.923C119.432 90.9903 119.213 96.8016 113.649 98.6345C109.259 100.08 99.6968 97.3014 99.9427 89.1243C100.06 85.237 102.266 79.9239 100.296 72.8849C100.239 72.6799 99.5069 70.0628 98.7852 70.7284C97.8057 71.6315 96.1535 77.349 96.6656 81.1102C96.8199 82.2426 101.326 95.625 89.6301 98.6304C84.68 99.9024 79.4694 97.6166 78.5583 91.6582C78.4506 90.9541 78.6093 90.7227 78.2738 90.7826C77.2421 90.9674 72.8348 93.0301 68.8917 86.6748C67.2797 84.0767 65.5013 76.1642 72.3884 72.5598C79.2792 68.9535 80.4643 72.2928 86.9696 68.0139C89.6269 66.2661 92.3894 64.9115 90.0336 64.6469C88.8522 64.5142 83.1957 64.8958 81.1298 65.9776C80.0203 66.5585 71.572 74.0187 64.2186 66.5406C61.9637 64.2475 61.2729 61.4891 61.1624 60.4563C61.0545 59.4477 61.0814 59.4633 61.0007 58.4571L61 58.1413C61.8305 53.7664 62.2123 53.8035 65.5962 51.0684C66.2716 50.5224 61.3896 45.567 68.4476 38.9629C71.8779 35.7532 80.6411 35.0668 83.6261 41.289C86.2388 46.7352 84.9297 47.6399 88.8849 51.2225C89.0161 51.3414 96.9905 60.461 93.4406 52.0453C91.3351 47.0538 90.5148 46.2176 90.1238 45.819C87.2357 42.8747 80.9237 37.6904 83.72 30.0967C84.8409 27.0528 88.5463 22.7582 93.0726 23.0106C98.861 23.3333 98.3698 26.2551 99.4619 26.1449C99.5722 26.1338 103.276 20.8432 110.288 24.5424C115.743 27.4204 117.689 36.4754 113.023 41.3738C109.652 44.9126 107.686 44.0965 104.258 52.4673C103.122 55.2428 103.595 55.4754 103.812 55.4023C104.114 55.3009 104.243 55.4664 109.321 50.9113C113.518 47.146 112.468 41.3461 118.733 37.7427C123.015 35.2797 133.012 38.1428 133.393 45.9167C133.555 49.235 131.218 51.1611 131.69 51.4872C132.799 52.2529 136.393 52.9502 136.843 57.2988C136.883 57.6861 136.918 57.657 136.997 58.0358Z" fill="#2EFF9C"/>
<path d="M175 61L137 99L163.6 61L137 23L175 61Z" fill="#1B4D3E"/>
</g>
<path d="M198.28 46.4404C201.72 46.4405 204.373 47.387 206.24 49.2803C208.133 51.1469 209.08 53.7202 209.08 57V57.2402H203.88V56.8398C203.88 55.1866 203.413 53.8264 202.479 52.7598C201.573 51.6934 200.173 51.1602 198.28 51.1602C196.413 51.1602 194.946 51.7333 193.88 52.8799C192.813 54.0265 192.28 55.5864 192.28 57.5596V64.4404C192.28 66.3869 192.813 67.9469 193.88 69.1201C194.946 70.2667 196.413 70.8398 198.28 70.8398C200.173 70.8398 201.573 70.3066 202.479 69.2402C203.413 68.1469 203.88 66.7868 203.88 65.1602V64.4404H209.08V65C209.08 68.2798 208.133 70.8665 206.24 72.7598C204.373 74.6263 201.72 75.5595 198.28 75.5596C194.813 75.5596 192.067 74.5997 190.04 72.6797C188.013 70.7331 187 67.9602 187 64.3604V57.6396C187 54.0399 188.013 51.2803 190.04 49.3604C192.067 47.4137 194.813 46.4404 198.28 46.4404ZM222.181 54.5996C224.155 54.5996 225.928 54.9998 227.502 55.7998C229.075 56.5998 230.315 57.7603 231.221 59.2803C232.128 60.8002 232.582 62.6266 232.582 64.7598V65.4004C232.582 67.5336 232.128 69.36 231.221 70.8799C230.315 72.3999 229.075 73.5604 227.502 74.3604C225.928 75.1603 224.155 75.5596 222.181 75.5596C220.208 75.5595 218.435 75.1602 216.862 74.3604C215.289 73.5604 214.048 72.3999 213.141 70.8799C212.235 69.36 211.782 67.5334 211.782 65.4004V64.7598C211.782 62.6267 212.235 60.8001 213.141 59.2803C214.048 57.7603 215.289 56.5998 216.862 55.7998C218.435 55 220.208 54.5997 222.181 54.5996ZM256.354 75H251.394V72.5996H250.674C250.22 73.3463 249.514 74.0263 248.554 74.6396C247.62 75.2529 246.247 75.5595 244.434 75.5596C242.861 75.5596 241.381 75.1737 239.994 74.4004C238.634 73.6004 237.54 72.4399 236.714 70.9199C235.887 69.4001 235.474 67.5601 235.474 65.4004V64.7598C235.474 62.6 235.887 60.7601 236.714 59.2402C237.54 57.7202 238.634 56.5731 239.994 55.7998C241.354 54.9998 242.834 54.5996 244.434 54.5996C245.634 54.5996 246.634 54.7467 247.434 55.04C248.261 55.3067 248.928 55.6535 249.434 56.0801C249.941 56.5067 250.327 56.9605 250.594 57.4404H251.314V47H256.354V75ZM270.101 54.5996C272.048 54.5996 273.742 55.04 275.181 55.9199C276.621 56.7732 277.742 57.973 278.542 59.5195C279.342 61.0395 279.742 62.8132 279.742 64.8398V66.5596H265.302C265.355 67.9196 265.862 69.0266 266.822 69.8799C267.782 70.7331 268.955 71.1601 270.342 71.1602C271.755 71.1602 272.795 70.8535 273.462 70.2402C274.128 69.6269 274.636 68.9469 274.982 68.2002L279.101 70.3604C278.728 71.0535 278.182 71.8132 277.462 72.6396C276.768 73.4396 275.835 74.1331 274.662 74.7197C273.489 75.2797 271.995 75.5596 270.181 75.5596C268.208 75.5595 266.462 75.1468 264.942 74.3203C263.449 73.467 262.275 72.2798 261.422 70.7598C260.595 69.2132 260.181 67.4001 260.181 65.3203V64.8398C260.181 62.7601 260.595 60.9603 261.422 59.4404C262.248 57.8938 263.409 56.7065 264.902 55.8799C266.395 55.0267 268.128 54.5997 270.101 54.5996ZM245.954 59C244.407 59 243.114 59.5064 242.074 60.5195C241.034 61.5062 240.514 62.9599 240.514 64.8799V65.2803C240.515 67.2001 241.034 68.6664 242.074 69.6797C243.114 70.6663 244.407 71.1601 245.954 71.1602C247.501 71.1602 248.794 70.6664 249.834 69.6797C250.874 68.6664 251.394 67.2001 251.394 65.2803V64.8799C251.394 62.9599 250.874 61.5062 249.834 60.5195C248.821 59.5064 247.527 59 245.954 59ZM222.181 59.0801C220.635 59.0802 219.355 59.5864 218.342 60.5996C217.328 61.5863 216.822 63.0133 216.822 64.8799V65.2803C216.822 67.1466 217.329 68.5863 218.342 69.5996C219.355 70.5862 220.635 71.08 222.181 71.0801C223.728 71.0801 225.009 70.5863 226.022 69.5996C227.035 68.5863 227.542 67.1465 227.542 65.2803V64.8799C227.542 63.0133 227.036 61.5863 226.022 60.5996C225.036 59.5863 223.755 59.0801 222.181 59.0801ZM270.061 59C268.702 59.0001 267.622 59.3469 266.822 60.04C266.022 60.7333 265.528 61.6532 265.342 62.7998H274.622C274.515 61.6532 274.048 60.7333 273.221 60.04C272.422 59.3468 271.368 59 270.061 59Z" fill="#0A0F0F"/>
<path d="M294.46 46C296.273 46 297.846 46.3467 299.18 47.04C300.513 47.7334 301.54 48.72 302.26 50C303.006 51.2533 303.38 52.7597 303.38 54.5195H299.059C299.059 52.9996 298.659 51.84 297.859 51.04C297.059 50.2401 295.926 49.8399 294.46 49.8398C292.993 49.8398 291.846 50.24 291.019 51.04C290.22 51.84 289.819 52.9864 289.819 54.4795V67.4795C289.819 68.9728 290.219 70.1333 291.019 70.96C291.846 71.7599 292.993 72.1592 294.46 72.1592C295.926 72.1592 297.059 71.7597 297.859 70.96C298.659 70.1333 299.059 68.9728 299.059 67.4795H303.38C303.38 69.2128 303.006 70.72 302.26 72C301.54 73.2798 300.513 74.2667 299.18 74.96C297.846 75.6532 296.273 76 294.46 76C292.647 76 291.06 75.6665 289.7 75C288.367 74.3067 287.327 73.3198 286.58 72.04C285.86 70.7334 285.5 69.2128 285.5 67.4795V54.5195C285.5 52.7596 285.86 51.2399 286.58 49.96C287.327 48.68 288.367 47.7067 289.7 47.04C291.06 46.3468 292.647 46 294.46 46ZM387.037 53.1992C388.85 53.1992 390.423 53.5595 391.757 54.2793C393.09 54.9726 394.117 55.9595 394.837 57.2393C395.557 58.4926 395.917 59.9864 395.917 61.7197V65.6396H382.317V67.4795C382.317 69.1061 382.717 70.3459 383.517 71.1992C384.344 72.0525 385.53 72.4795 387.077 72.4795C388.33 72.4795 389.344 72.2664 390.117 71.8398C390.89 71.3865 391.371 70.7331 391.557 69.8799H395.837C395.517 71.7464 394.557 73.2394 392.957 74.3594C391.357 75.4527 389.384 76 387.037 76C385.25 76 383.677 75.6532 382.317 74.96C380.984 74.24 379.957 73.2398 379.237 71.96C378.517 70.68 378.157 69.1862 378.157 67.4795V61.7197C378.157 59.9864 378.517 58.4926 379.237 57.2393C379.957 55.9594 380.984 54.9726 382.317 54.2793C383.677 53.5594 385.25 53.1992 387.037 53.1992ZM340.669 53.2393C342.482 53.2393 344.055 53.586 345.388 54.2793C346.722 54.9726 347.749 55.9593 348.469 57.2393C349.189 58.4926 349.549 59.9998 349.549 61.7598V67.4395C349.549 69.1728 349.189 70.68 348.469 71.96C347.749 73.2399 346.722 74.2266 345.388 74.9199C344.055 75.6132 342.482 75.9599 340.669 75.96C338.855 75.96 337.281 75.6133 335.948 74.9199C334.615 74.2266 333.588 73.2399 332.868 71.96C332.148 70.68 331.788 69.1728 331.788 67.4395V61.7598C331.788 59.9998 332.148 58.4926 332.868 57.2393C333.588 55.9593 334.615 54.9726 335.948 54.2793C337.281 53.586 338.855 53.2393 340.669 53.2393ZM318.164 68.9199C318.164 69.7731 318.404 70.4534 318.884 70.96C319.364 71.4399 320.017 71.6796 320.844 71.6797H327.644V75.5996H320.644C319.284 75.5996 318.097 75.3331 317.084 74.7998C316.071 74.2398 315.271 73.4527 314.684 72.4395C314.124 71.4262 313.844 70.2531 313.844 68.9199V50.3193H306.644V46.3994H318.164V68.9199ZM362.653 67.6797C362.946 68.5062 363.2 69.3461 363.413 70.1992C363.653 71.0256 363.826 71.6792 363.932 72.1592C364.066 71.6792 364.24 71.0257 364.453 70.1992C364.693 69.3461 364.933 68.5062 365.173 67.6797L369.613 53.5996H373.972L366.693 75.5996H361.013L353.733 53.5996H358.133L362.653 67.6797ZM412.382 53.1992C414.728 53.1993 416.581 53.9329 417.941 55.3994C419.328 56.8394 420.021 58.8262 420.021 61.3594V62.8398H415.582V61.7197C415.582 60.1464 415.182 58.9458 414.382 58.1191C413.608 57.2659 412.515 56.8398 411.101 56.8398C409.688 56.8399 408.581 57.2659 407.781 58.1191C407.008 58.9725 406.622 60.1731 406.622 61.7197V75.5996H402.302V53.5996H406.462V57.7041C406.715 56.6209 407.141 55.7326 407.741 55.04C408.781 53.8134 410.328 53.1992 412.382 53.1992ZM340.669 57.04C339.229 57.04 338.095 57.4394 337.268 58.2393C336.468 59.0393 336.068 60.2131 336.068 61.7598V67.4395C336.068 68.9595 336.468 70.1333 337.268 70.96C338.095 71.7598 339.229 72.1592 340.669 72.1592C342.135 72.1591 343.268 71.7597 344.068 70.96C344.868 70.1333 345.268 68.9595 345.268 67.4395V61.7598C345.268 60.2131 344.868 59.0393 344.068 58.2393C343.268 57.4395 342.135 57.0401 340.669 57.04ZM387.037 56.6396C385.517 56.6397 384.344 57.08 383.517 57.96C382.717 58.84 382.317 60.0931 382.317 61.7197V62.7197L391.757 62.6807V61.6797C391.757 60.0799 391.357 58.8399 390.557 57.96C389.757 57.08 388.584 56.6396 387.037 56.6396Z" fill="#2EFF9C"/>
<defs>
<clipPath id="clip0_123_857">
<rect width="152" height="76" fill="white" transform="translate(23 23)"/>
</clipPath>
</defs>
</svg>
